<svg width="860" height="347" viewBox="0 0 860 347" fill="none" xmlns="http://www.w3.org/2000/svg">
<path d="M87.237 55.0711C102.542 56.74 114.786 59.4518 123.968 63.2067C133.29 66.9615 140.038 71.8981 144.212 78.0175C148.386 84.1368 150.473 91.7852 150.473 100.964C150.473 110.977 147.204 119.738 140.665 127.248C134.265 134.619 125.359 140.32 113.951 144.353C102.542 148.247 89.5327 150.194 74.9237 150.194C58.645 150.194 44.8707 148.178 33.6009 144.145C22.331 140.111 13.9134 134.757 8.34804 128.082C2.78271 121.268 0 113.827 0 105.762C0 104.371 0.417402 103.258 1.25221 102.424C2.22611 101.59 3.40882 101.172 4.80012 101.172H47.5838C50.5057 101.172 52.871 102.077 54.6797 103.884C57.045 106.109 59.6885 107.639 62.6103 108.473C65.5321 109.169 69.6365 109.516 74.9237 109.516C88.1414 109.516 94.7503 107.5 94.7503 103.467C94.7503 101.798 93.8456 100.408 92.0372 99.2949C90.3676 98.0433 87.3066 97.0003 82.8543 96.1659C78.5412 95.1928 72.141 94.2186 63.6538 93.2455C44.5924 91.0207 29.9833 86.2917 19.8266 79.0605C9.66985 71.6895 4.59142 61.3292 4.59142 47.9786C4.59142 38.5219 7.44364 30.1778 13.1482 22.9463C18.8527 15.7148 26.9224 10.0825 37.3575 6.04948C47.9316 2.01646 60.1755 0 74.0889 0C88.5588 0 101.22 2.29463 112.072 6.88389C122.925 11.3341 131.203 16.8968 136.908 23.5721C142.613 30.2474 145.465 36.7837 145.465 43.1808C145.465 44.5714 144.977 45.684 144.004 46.5184C143.169 47.3528 141.987 47.77 140.456 47.77H95.5851C93.2194 47.77 91.0633 46.9356 89.1153 45.2668C87.5848 43.8762 85.7761 42.7636 83.6891 41.9292C81.6021 41.0948 78.402 40.6775 74.0889 40.6775C64.7669 40.6775 60.1059 42.6245 60.1059 46.5184C60.1059 48.6045 61.9146 50.2733 65.5321 51.5249C69.1496 52.6375 76.3846 53.8195 87.237 55.0711ZM513.242 141.641C513.519 142.197 513.659 142.823 513.659 143.519C513.659 144.77 513.172 145.883 512.198 146.856C511.363 147.691 510.32 148.108 509.068 148.108H461.693C459.744 148.108 457.936 147.621 456.266 146.648C454.736 145.675 453.622 144.423 452.927 142.893L434.561 101.59H417.031V142.476C417.031 144.006 416.473 145.326 415.361 146.439C414.248 147.552 412.925 148.108 411.396 148.108H366.316C364.785 148.108 363.463 147.552 362.351 146.439C361.237 145.326 360.681 144.006 360.681 142.476V7.7183C360.681 6.18851 361.237 4.86743 362.351 3.75485C363.463 2.64226 364.785 2.08603 366.316 2.08603H447.501C460.023 2.08603 470.944 4.10248 480.267 8.13551C489.727 12.1685 496.963 18.0094 501.972 25.6581C506.981 33.3069 509.485 42.2768 509.485 52.5679C509.485 71.4809 502.181 85.1798 487.572 93.6627L513.242 141.641ZM443.118 62.9981C446.179 62.9981 448.544 62.0249 450.214 60.0776C451.884 57.9916 452.718 55.4185 452.718 52.3593C452.718 49.2998 451.884 46.6575 450.214 44.4324C448.683 42.0682 446.318 40.8862 443.118 40.8862H417.031V62.9981H443.118ZM678.243 2.08603C679.773 2.08603 681.095 2.64226 682.208 3.75485C683.321 4.86743 683.878 6.18851 683.878 7.7183V39.4259C683.878 40.9557 683.321 42.2768 682.208 43.3894C681.095 44.502 679.773 45.0582 678.243 45.0582H596.223V58.4088H664.677C666.207 58.4088 667.529 58.9647 668.643 60.0776C669.755 61.1905 670.312 62.511 670.312 64.0411V95.5401C670.312 97.0702 669.755 98.3907 668.643 99.5035C667.529 100.616 666.207 101.172 664.677 101.172H596.223V142.476C596.223 144.006 595.666 145.326 594.554 146.439C593.44 147.552 592.118 148.108 590.588 148.108H545.509C543.978 148.108 542.656 147.552 541.544 146.439C540.43 145.326 539.874 144.006 539.874 142.476V7.7183C539.874 6.18851 540.43 4.86743 541.544 3.75485C542.656 2.64226 543.978 2.08603 545.509 2.08603H678.243ZM796.495 55.0711C811.799 56.74 824.044 59.4518 833.226 63.2067C842.548 66.9615 849.296 71.8981 853.47 78.0175C857.644 84.1368 859.731 91.7852 859.731 100.964C859.731 110.977 856.461 119.738 849.922 127.248C843.522 134.619 834.617 140.32 823.209 144.353C811.799 148.247 798.791 150.194 784.182 150.194C767.903 150.194 754.129 148.178 742.859 144.145C731.589 140.111 723.171 134.757 717.606 128.082C712.04 121.268 709.258 113.827 709.258 105.762C709.258 104.371 709.675 103.258 710.51 102.424C711.484 101.59 712.666 101.172 714.058 101.172H756.842C759.764 101.172 762.128 102.077 763.938 103.884C766.302 106.109 768.946 107.639 771.868 108.473C774.79 109.169 778.894 109.516 784.182 109.516C797.399 109.516 804.008 107.5 804.008 103.467C804.008 101.798 803.104 100.408 801.295 99.2949C799.626 98.0433 796.564 97.0003 792.112 96.1659C787.798 95.1928 781.399 94.2186 772.912 93.2455C753.85 91.0207 739.241 86.2917 729.085 79.0605C718.927 71.6895 713.849 61.3292 713.849 47.9786C713.849 38.5219 716.701 30.1778 722.406 22.9463C728.11 15.7148 736.18 10.0825 746.615 6.04948C757.189 2.01646 769.433 0 783.347 0C797.816 0 810.478 2.29463 821.33 6.88389C832.183 11.3341 840.461 16.8968 846.166 23.5721C851.87 30.2474 854.723 36.7837 854.723 43.1808C854.723 44.5714 854.235 45.684 853.262 46.5184C852.427 47.3528 851.244 47.77 849.714 47.77H804.843C802.477 47.77 800.321 46.9356 798.373 45.2668C796.843 43.8762 795.034 42.7636 792.947 41.9292C790.86 41.0948 787.66 40.6775 783.347 40.6775C774.024 40.6775 769.364 42.6245 769.364 46.5184C769.364 48.6045 771.172 50.2733 774.79 51.5249C778.407 52.6375 785.643 53.8195 796.495 55.0711Z" fill="#0C3AFB"/>
<path d="M441.134 200.949C454.226 200.949 465.648 203.175 475.397 207.626C485.146 212.077 492.598 218.128 497.751 225.778C502.904 233.428 505.481 241.982 505.481 251.441C505.481 267.02 500.606 279.261 490.857 288.163C481.107 296.926 464.533 301.307 441.134 301.307H413.557V341.367C413.557 342.897 413 344.218 411.886 345.331C410.771 346.444 409.449 347 407.916 347H362.999C361.467 347 360.144 346.444 359.03 345.331C357.915 344.218 357.358 342.897 357.358 341.367V206.583C357.358 205.052 357.915 203.732 359.03 202.619C360.144 201.505 361.467 200.949 362.999 200.949H441.134ZM440.299 262.708C443.641 262.708 446.287 261.735 448.237 259.787C450.188 257.701 451.162 254.988 451.162 251.65C451.162 248.173 450.188 245.321 448.237 243.096C446.287 240.87 443.641 239.757 440.299 239.757H413.766V262.708H440.299Z" fill="#0C3AFB"/>
<path d="M253.175 344.612C244.932 344.612 218.688 345.753 192.444 325.214C175.329 308.099 176.622 270.697 176.622 242.556C176.622 214.415 133.143 230.814 133.103 205.611C133.048 171.429 280.838 117.566 198.36 112.387C198.36 112.387 174.906 114.976 175.335 72.0477C175.764 29.119 174.906 15.2115 174.906 15.2115C174.906 11.648 175.478 8.57036 176.622 5.97867C177.765 3.38698 179.123 2.09119 180.696 2.09119H225.513C227.085 2.09119 228.443 3.38698 229.587 5.97867C230.731 8.57036 231.303 11.648 231.303 15.2115C231.303 15.2115 231.303 63.1853 231.303 79.2405C231.303 95.2957 270.592 88.5629 274.735 99.439C278.878 110.315 254.812 118.602 198.36 162.106C141.907 205.611 232.303 186.274 232.303 214.415C232.303 242.556 232.303 284.376 232.303 284.376C232.303 284.376 232.303 289.604 237.521 294.831C241.255 298.572 247.561 300.388 253.258 300.388C258.08 300.388 264.652 298.835 268.829 294.831C274.499 289.151 274.047 284.376 274.047 284.376C274.047 284.376 273.797 209.674 274.047 193.181C274.417 168.811 225.513 194.217 225.513 169.875C225.513 145.533 377.426 66.2927 288.994 79.2405C288.994 79.2405 274.174 83.3838 275.048 51.2733C275.431 37.1955 275.048 15.2115 275.048 15.2115C275.048 11.648 275.62 8.57036 276.764 5.97867C277.907 3.38698 279.265 2.09119 280.838 2.09119H325.655C327.228 2.09119 328.585 3.38698 329.729 5.97867C330.873 8.57036 331.445 11.648 331.445 15.2115C331.445 15.2115 331.445 34.1823 331.445 41.433C331.445 56.9184 352.979 50.7615 356.322 59.5599C366.163 85.4554 233.447 154.338 276.764 148.123C320.08 141.908 331.445 134.657 331.445 162.106C331.445 189.555 329.729 242.556 329.729 242.556C329.729 285.199 329.729 306.958 311.111 325.214C288.291 344.612 263.188 344.612 253.175 344.612Z" fill="#0C3AFB"/>
</svg>
